<svg width="108" height="53" viewBox="0 0 108 53" fill="none" xmlns="http://www.w3.org/2000/svg">
<path d="M43.3165 48.4683C41.9463 48.4568 40.8545 46.5846 40.8777 44.2893C40.9017 41.9935 42.0324 40.1418 43.4024 40.1547C44.7738 40.1665 45.8658 42.039 45.8421 44.3336C45.8192 46.6298 44.6879 48.4806 43.3165 48.4683Z" fill="#489950"/>
<path d="M64.849 48.9275C63.6605 48.916 62.7133 47.0309 62.7335 44.7209C62.754 42.4101 63.735 40.5464 64.9237 40.559C66.1134 40.5716 67.0609 42.4559 67.0401 44.7658C67.0199 47.0767 66.0383 48.9398 64.849 48.9275Z" fill="#489950"/>
<path d="M90.8865 49.4512C90.0096 49.4439 89.3104 48.2454 89.3254 46.7763C89.3406 45.3066 90.0645 44.1214 90.9416 44.1293C91.8193 44.1373 92.5185 45.3357 92.5033 46.8045C92.488 48.2739 91.7639 49.4588 90.8865 49.4512Z" fill="#489950"/>
<path d="M95.6311 44.5125C96.5088 44.5201 97.208 45.7185 97.1925 47.1876C97.1775 48.6573 96.4534 49.842 95.576 49.8344L95.6311 44.5125Z" fill="#489950"/>
<path d="M46.6709 18.3471C47.4319 18.5471 48.0725 18.0072 48.0833 17.4623C48.129 15.2691 48.0833 14.0546 48.0833 10.9869C48.0833 9.97309 47.9546 9.32542 46.3683 8.81223C44.0547 8.06299 39.2661 6.63585 37.9871 6.29C37.5204 6.16347 36.9478 6.52928 36.9425 7.02956L35.8171 20.7334C35.8171 21.367 36.2299 22.0969 36.7505 22.1021L39.092 22.5825C39.7103 22.7093 40.3341 22.3819 40.5827 21.8018L42.1092 18.2362C42.1092 18.2362 42.342 17.2917 43.3215 17.5333C44.3015 17.7752 46.6709 18.3471 46.6709 18.3471Z" fill="#489950"/>
<path d="M2.29837 22.1339H31.6014C32.3803 22.1339 32.9089 21.5995 32.9089 20.8127L34.1211 7.27853C34.1211 5.39955 32.7336 5.07338 30.2429 5.07338C22.2023 5.07338 8.82505 5.56191 5.20684 6.57891C4.3083 6.8311 3.79057 7.31406 3.64985 8.25736C3.22359 11.1122 1.26263 17.5471 1.15299 20.8183C1.13599 21.3324 1.37344 22.1339 2.29837 22.1339Z" fill="#489950"/>
<path d="M25.2859 35.6534C25.122 36.1449 24.6605 36.4781 24.1437 36.4781H8.01536C7.49822 36.4781 7.0362 36.1449 6.87261 35.6534L5.50824 31.936C5.37279 31.5299 5.67417 31.1113 6.10131 31.1113H26.0575C26.4843 31.1113 26.786 31.5299 26.6508 31.936L25.2859 35.6534Z" fill="#489950"/>
<path d="M53.9029 30.7105L107.824 39.4492C107.824 39.4492 54.5977 28.2725 53.0047 27.6939" fill="#489950"/>
<path d="M53.9029 24.1934L107.824 35.6234C107.824 35.6234 54.5977 21.7554 53.0047 21.1768" fill="#489950"/>
<path d="M53.9029 17.3886L107.824 32.1811L53.3873 14.3071" fill="#489950"/>
<path d="M53.9029 10.4883L107.824 28.3556L53.3873 7.40623" fill="#489950"/>
<path d="M102.848 41.3658L57.6773 35.0721C57.6773 35.0721 57.6773 6.97642 57.6773 4.63416L107.569 24.5299C107.569 24.5299 67.0858 5.27683 57.5566 0.873276C56.2573 0.273179 54.8331 -0.00719938 53.4024 0.000140363C29.4912 0.124035 18.785 2.23817 18.8544 2.23523C35.6019 1.52797 36.9417 2.39054 49.8221 6.17726C50.6757 6.42799 50.4749 8.66808 50.4749 8.66808V31.9547L37.6441 30.0244C36.4023 29.8635 32.9224 29.2578 30.6595 33.4062L28.4995 38.0969C28.2896 38.4883 27.8821 38.7237 27.4503 38.7041H6.05087C5.62169 38.6844 5.24057 38.633 5.08021 38.2205L3.37019 33.4065C2.87299 32.1015 2.2512 32.0537 1.15037 31.5745C0.194956 31.1585 0.215768 31.7633 0.203455 31.9545C0.141597 32.8757 0.00908803 35.8874 0 38.6577H1.83989C2.20927 38.6762 2.53146 38.766 2.65898 39.2501L3.17055 41.5754C3.26905 41.9512 3.0571 42.1449 2.77039 42.1309H0.0621521C0.147462 43.9538 0.197885 45.2461 0.284368 46.1633L11.2316 48.3359H3.31156C3.97411 51.27 4.60411 52.4679 7.60698 52.4679C10.6104 52.4679 10.9789 52.4679 12.5388 52.4679C16.3192 52.4679 17.5156 50.3766 18.1441 48.3359C21.1842 48.3359 31.2007 48.3359 33.9048 48.3359C34.4545 49.7856 34.9329 52.4679 38.6174 52.4679C42.3019 52.4679 44.4551 52.4679 46.3689 52.4679C49.0009 52.4679 50.484 50.024 51.066 48.3359H56.9078C57.0875 50.2113 58.4226 52.6508 60.7723 52.6508C63.1225 52.6508 66.0278 52.6508 67.2482 52.6508C68.9263 52.6508 70.9805 51.6502 71.4481 48.3359H86.0408C86.8508 51.4614 87.757 52.4679 91.4411 52.4679C92.3535 52.4679 95.9901 52.4679 96.7078 52.4679C99.3398 52.4679 99.818 50.4559 99.9742 47.4231H101.625C101.855 47.4146 102.036 47.1782 102.036 46.9492V43.0204L102.931 43.0947C103.152 43.1132 103.34 42.9385 103.34 42.7186C103.34 42.7186 103.34 42.4526 103.34 41.9735C103.339 41.4935 102.848 41.3658 102.848 41.3658ZM37.4348 41.3214C37.4298 41.7968 37.0543 42.1787 36.596 42.1734L32.0174 42.1303C31.6263 42.1262 31.3692 41.7066 31.5314 41.3382L32.3701 39.4322C32.5803 38.9574 33.0423 38.6527 33.5469 38.6574L36.6297 38.6873C37.0888 38.6923 37.4568 39.0807 37.4524 39.5564L37.4348 41.3214ZM46.1373 50.5428C44.0855 50.5234 42.4502 47.5449 42.4854 43.8918C42.5206 40.2387 44.2139 37.2934 46.2657 37.313C48.3176 37.3333 49.9534 40.3115 49.9176 43.9634C49.8827 47.6172 48.1894 50.5622 46.1373 50.5428ZM67.5469 50.4714C66.3283 50.4579 65.3614 47.8582 65.3884 44.6642C65.4151 41.4712 66.4256 38.8926 67.6434 38.9061C68.8627 38.9202 69.8283 41.5205 69.8017 44.7136C69.7753 47.9078 68.7647 50.4855 67.5469 50.4714ZM93.0705 50.792C92.2338 50.7835 91.5731 48.9477 91.5953 46.6903C91.617 44.4335 92.313 42.6103 93.1506 42.6188C93.9867 42.6267 94.6469 44.4634 94.6249 46.7194C94.6032 48.9768 93.9057 50.7994 93.0705 50.792ZM97.5067 50.7935C96.8365 50.7868 96.3111 49.1221 96.3293 47.0761C96.3501 45.0289 96.9095 43.3751 97.5782 43.3815C98.2475 43.3877 98.7743 45.0524 98.7547 47.099C98.7344 49.1453 98.1765 50.7994 97.5067 50.7935Z" fill="#489950"/>
</svg>
